<svg xmlns="http://www.w3.org/2000/svg" viewBox="0 0 32 32">
  <defs>
    <linearGradient id="g" x1="0%" y1="0%" x2="100%" y2="100%">
      <stop offset="0%" stop-color="#4B4FE8" />
      <stop offset="100%" stop-color="#8E44C9" />
    </linearGradient>
  </defs>
  <path fill="url(#g)" d="M16 3C8.82 3 3 8.14 3 14.5c0 3.5 1.8 6.62 4.64 8.72-.15 1.57-.77 3.02-1.83 4.28a.6.6 0 0 0 .55.98c2.53-.42 4.66-1.42 6.36-2.64 1.03.24 2.13.36 3.28.36 7.18 0 13-5.14 13-11.5S23.18 3 16 3Z" />
  <circle cx="10.5" cy="14.5" r="1.6" fill="#fff" />
  <circle cx="16" cy="14.5" r="1.6" fill="#fff" />
  <circle cx="21.5" cy="14.5" r="1.6" fill="#fff" />
</svg>
